<svg width="38" height="33" viewBox="0 0 38 33" fill="none" xmlns="http://www.w3.org/2000/svg">
<path d="M19.6744 1C46.8033 1 26.3059 32.4997 19.6744 32.4996C13.0429 32.4994 -7.45444 1 19.6744 1Z" fill="#5CAFE6" stroke="#5CAFE6" stroke-width="0.301432"/>
<path d="M0.37664 13.9549C0.37664 13.9549 7.74071 14.981 10 13.7679C11.6587 12.8773 13.5 7.03585 14 13.7679C14.5 20.5 16.1261 22.7415 16.5 13.7679C16.8739 4.7943 18.8846 -1.18807 19.6324 13.7679C20.3802 28.7239 21.6872 23.3023 22.5 13.9549C23.3128 4.60749 24.6261 7.97249 25 13.9549C25.3739 19.9374 26.5903 15.4098 28.0451 13.9549C29.5 12.5 37.7665 13.7679 37.7665 13.7679" stroke="white" stroke-width="1.1217"/>
</svg>
